<svg width="12" height="22" viewBox="0 0 12 22" fill="none" xmlns="http://www.w3.org/2000/svg">
<path d="M4.17972 21.3894C3.93954 21.2609 3.88196 21.0535 3.88196 20.7868C3.89157 17.9911 3.88196 15.1955 3.88196 12.39C3.88196 12.3011 3.88196 12.2122 3.88196 12.0937C3.79549 12.0937 3.72826 12.0838 3.66101 12.0838C2.87322 12.0838 2.09497 12.0838 1.30718 12.0838C0.894066 12.0838 0.75 11.9356 0.75 11.5108C0.75 10.4341 0.75 9.35733 0.75 8.27069C0.75 7.8558 0.903682 7.69775 1.31679 7.69775C2.09498 7.69775 2.87321 7.69775 3.65139 7.69775C3.72825 7.69775 3.7955 7.69775 3.89157 7.69775C3.89157 7.59896 3.89157 7.52981 3.89157 7.45078C3.89157 6.59135 3.87238 5.7418 3.91081 4.88237C3.96845 3.45986 4.42949 2.18553 5.48629 1.21744C6.23565 0.525946 7.13873 0.130809 8.12827 0.0715384C9.27153 0.00238884 10.4148 0.0221428 11.5581 0.0221428C11.8079 0.0221428 11.952 0.170324 11.9904 0.427165C12 0.496315 12 0.565463 12 0.634613C12 1.60271 12 2.5708 12 3.5389C12 4.02294 11.8655 4.15136 11.3947 4.16124C10.7222 4.17112 10.0401 4.17112 9.36763 4.20075C8.98335 4.22051 8.6183 4.32917 8.43576 4.72431C8.3493 4.91201 8.29162 5.13921 8.28202 5.34666C8.2628 6.12706 8.2724 6.90746 8.2724 7.7175C8.34926 7.7175 8.41649 7.7175 8.49335 7.7175C9.43485 7.7175 10.3764 7.7175 11.3179 7.7175C11.7118 7.7175 11.8559 7.86567 11.8655 8.27069C11.8655 9.36721 11.8655 10.4736 11.8655 11.5701C11.8655 11.9554 11.7118 12.1036 11.3372 12.1036C10.4053 12.1036 9.47332 12.1036 8.53181 12.1036C8.45496 12.1036 8.3877 12.1036 8.28202 12.1036C8.28202 12.2023 8.28202 12.2912 8.28202 12.3802C8.28202 15.1758 8.28202 17.9714 8.28202 20.7769C8.28202 21.0436 8.22444 21.2609 7.99387 21.419C6.72572 21.3894 5.44787 21.3894 4.17972 21.3894Z" fill="white"/>
</svg>
