<?xml version="1.0" encoding="utf-8"?>
<!-- Generator: Adobe Illustrator 25.0.0, SVG Export Plug-In . SVG Version: 6.00 Build 0)  -->
<svg version="1.1" id="Layer_1" xmlns="http://www.w3.org/2000/svg" xmlns:xlink="http://www.w3.org/1999/xlink" x="0px" y="0px"
	 viewBox="0 0 20 20" style="enable-background:new 0 0 20 20;" xml:space="preserve">
<style type="text/css">
	.st0{fill:#FDAF27;}
	.st1{fill:#FFEFCD;}
	.st2{fill:#52005B;}
	.st3{fill:#E7C9E9;}
	.st4{fill:#FFFFFF;}
</style>
<g>
	<g>
		<path class="st4" d="M9.9,0.31c1.48,0,2.96-0.03,4.44,0.01c1.85,0.05,3.3,0.88,4.35,2.4c0.62,0.9,0.9,1.91,0.9,3
			c0,2.86,0.02,5.72-0.01,8.58c-0.02,2.08-0.97,3.66-2.76,4.72c-0.79,0.47-1.66,0.68-2.58,0.68c-2.91,0-5.82,0.01-8.73,0
			c-2.32-0.01-4.4-1.57-5.09-3.79c-0.2-0.66-0.24-1.34-0.24-2.02c0.01-2.77-0.02-5.55,0.01-8.32C0.21,4,0.84,2.69,2.01,1.65
			C3.06,0.72,4.29,0.3,5.69,0.3C7.09,0.31,8.49,0.31,9.9,0.31C9.9,0.31,9.9,0.31,9.9,0.31z M9.87,15.39c2.9,0.02,5.39-2.33,5.4-5.36
			c0.02-2.92-2.31-5.34-5.26-5.41C6.97,4.55,4.55,6.96,4.5,9.9C4.44,12.97,6.93,15.39,9.87,15.39z M17.42,3.53
			c0-0.6-0.49-1.08-1.08-1.07c-0.6,0.01-1.07,0.49-1.07,1.09c0,0.59,0.48,1.07,1.08,1.07C16.95,4.61,17.42,4.13,17.42,3.53z"/>
		<path class="st4" d="M6.65,10c0-1.79,1.48-3.27,3.3-3.23c1.71,0.04,3.16,1.43,3.16,3.23c0,1.77-1.45,3.23-3.19,3.24
			C8.1,13.24,6.65,11.8,6.65,10z"/>
	</g>
</g>
</svg>
