<svg width="21" height="18" viewBox="0 0 21 18" fill="none" xmlns="http://www.w3.org/2000/svg">
<path d="M0 15.2915C2.35775 15.4992 4.44584 14.9354 6.32405 13.531C4.34593 13.3628 3.02716 12.3738 2.29786 10.5341C2.95723 10.6429 3.56665 10.633 4.17607 10.4649C2.05809 9.82201 0.919153 8.43733 0.779286 6.19218C1.40869 6.50868 2.00814 6.6966 2.6775 6.72627C0.779311 5.14379 0.349691 3.26459 1.39869 1.00955C3.75644 3.75912 6.71368 5.25259 10.3202 5.49985C10.2903 5.26248 10.2602 5.03499 10.2502 4.8174C10.0804 2.74039 11.5091 0.841412 13.5171 0.366667C15.0457 0.0106084 16.3944 0.376557 17.5433 1.42495C17.6732 1.54364 17.7931 1.58321 17.953 1.52386C18.3726 1.3854 18.8122 1.28649 19.2218 1.12824C19.6314 0.969993 20.021 0.772185 20.4306 0.574375C20.3007 1.05901 20.0609 1.49419 19.7412 1.87003C19.4215 2.23598 19.0519 2.55248 18.7123 2.88875C19.4715 2.79974 20.2307 2.57226 21 2.30522C20.8501 2.50303 20.7203 2.7305 20.5405 2.90853C20.0509 3.40306 19.5414 3.87781 19.0319 4.34266C18.942 4.43168 18.882 4.50091 18.892 4.62949C18.952 6.99332 18.3725 9.19891 17.1637 11.2364C15.3754 14.2629 12.7479 16.1915 9.27119 16.9333C7.77262 17.2498 6.26404 17.2894 4.75548 17.0619C3.08707 16.8146 1.52863 16.241 0.0900021 15.3508C0.0700211 15.3508 0.0499524 15.3409 0 15.2915Z" fill="white"/>
</svg>
