<svg width="23" height="17" viewBox="0 0 23 17" fill="none" xmlns="http://www.w3.org/2000/svg">
<path d="M11.3442 0.970703C12.7855 0.999424 14.0613 1.009 15.3273 1.04729C16.1064 1.06644 16.8855 1.09516 17.6645 1.13346C18.2294 1.16218 18.7942 1.21004 19.3591 1.25791C19.7875 1.29621 20.2161 1.38237 20.6154 1.53555C21.3263 1.79403 21.8132 2.26313 22.1054 2.95242C22.2807 3.37366 22.3878 3.82362 22.456 4.27358C22.5534 4.915 22.6215 5.566 22.6507 6.217C22.6897 7.01161 22.7383 7.79663 22.7481 8.59124C22.7578 9.10821 22.7287 9.62518 22.7092 10.1421C22.6897 10.5538 22.6702 10.9559 22.641 11.358C22.5825 12.1143 22.5339 12.8802 22.3684 13.6269C22.3099 13.8854 22.2319 14.1439 22.1443 14.3928C21.8521 15.197 21.2775 15.7235 20.4498 15.9724C20.031 16.1065 19.5928 16.1831 19.1546 16.2118C18.5703 16.2596 17.9762 16.3075 17.3918 16.3362C16.7588 16.3649 16.1356 16.3937 15.5026 16.4032C14.4022 16.432 13.2919 16.4415 12.1915 16.4607C11.091 16.4798 9.98079 16.4511 8.88033 16.432C8.33497 16.4224 7.79943 16.4128 7.26381 16.3937C6.52368 16.3649 5.77377 16.3362 5.03364 16.2979C4.62462 16.2788 4.22533 16.2501 3.81631 16.2118C3.33912 16.1735 2.87162 16.0873 2.42364 15.9246C1.69325 15.6661 1.1869 15.1874 0.894738 14.479C0.719444 14.0482 0.612334 13.5982 0.544164 13.1482C0.427301 12.3441 0.35915 11.5399 0.320195 10.7261C0.290979 10.1039 0.261697 9.48158 0.251959 8.84972C0.24222 8.38062 0.271464 7.92109 0.281203 7.45199C0.30068 7.01161 0.320105 6.57122 0.349321 6.12127C0.407752 5.35539 0.456474 4.57993 0.622029 3.82362C0.680461 3.55556 0.75836 3.2875 0.855746 3.01944C1.15764 2.20569 1.74197 1.68872 2.56975 1.43981C3.01772 1.30578 3.47546 1.23877 3.93317 1.20047C4.38115 1.16218 4.81938 1.13345 5.26735 1.10473C5.66663 1.07601 6.0659 1.05687 6.46518 1.04729C8.15969 1.03772 9.83474 1.009 11.3442 0.970703ZM9.2699 12.0281C9.43545 11.9707 15.0254 8.78271 15.1033 8.7157C13.1945 7.63389 11.2955 6.55208 9.38675 5.47027C9.35754 5.45112 9.32836 5.44155 9.29914 5.43197H9.28939C9.28939 5.43197 9.27963 5.43198 9.2699 5.44155C9.2699 7.62431 9.2699 9.81665 9.2699 12.0281Z" fill="white"/>
</svg>
